<svg xmlns="http://www.w3.org/2000/svg" viewBox="0 0 97.02 36.4"><defs><style>.a{fill:#1d1d1e;}.b{fill:#ff8e78;}</style></defs><title>logo</title><path class="a" d="M291.52,739.73a17.14,17.14,0,0,1-4.38,3.55,9.63,9.63,0,0,1-4.7,1.33,5.28,5.28,0,0,1-4.79-2.5,11.5,11.5,0,0,1-1.58-6.21,28.66,28.66,0,0,1,2.42-10.84,34.87,34.87,0,0,1,6-9.92q3.57-4,6.69-4a2.28,2.28,0,0,1,1.67.54,2,2,0,0,1,.54,1.49,9.51,9.51,0,0,1-1.58,4.47,29.62,29.62,0,0,1-3.25,4.61,1.53,1.53,0,0,0,1.4,1,3.25,3.25,0,0,0,2.39-1.63,14.51,14.51,0,0,0,2-3.93,12.49,12.49,0,0,0,.82-4.06,3.68,3.68,0,0,0-1.11-2.94,4.56,4.56,0,0,0-3.05-.94q-4.2,0-8.54,3.86a30.64,30.64,0,0,0-7.18,9.8,27,27,0,0,0-2.84,11.72,15.73,15.73,0,0,0,.92,5.44,8.81,8.81,0,0,0,2.94,4,8,8,0,0,0,5,1.54,12.13,12.13,0,0,0,7.92-3,24.14,24.14,0,0,0,6.08-7.79l-.64-.45A19.41,19.41,0,0,1,291.52,739.73Z" transform="translate(-272.46 -709.75)"/><path class="a" d="M314.91,740.16c-1.32,1.25-2.42,1.88-3.29,1.88a1.29,1.29,0,0,1-1.16-.61,2.6,2.6,0,0,1-.38-1.38,4.63,4.63,0,0,1,.45-1.87,23.43,23.43,0,0,1,1.22-2.33c.06-.09.23-.4.52-.93a2.79,2.79,0,0,0,.43-1.15c0-.3-.2-.55-.61-.74a4.2,4.2,0,0,0-1.2-.39,80.45,80.45,0,0,1-5.24,7c-1.62,1.91-3,2.87-4.24,2.87-.81,0-1.22-.59-1.22-1.76a12.69,12.69,0,0,1,1.47-5.29,19.16,19.16,0,0,1,3.65-5.28,6.14,6.14,0,0,1,4.18-2.21,2,2,0,0,1,1.67.7,2.89,2.89,0,0,1,.55,1.83,6,6,0,0,1-.23,1.58,2.59,2.59,0,0,0,1.63-.46,1.75,1.75,0,0,0,.58-1.49,3,3,0,0,0-1.17-2.43,4.49,4.49,0,0,0-2.94-.95,9.37,9.37,0,0,0-5.73,2.3,19.55,19.55,0,0,0-4.86,5.6,12.13,12.13,0,0,0-1.92,6,3.86,3.86,0,0,0,.93,2.78,3.17,3.17,0,0,0,2.41,1,5.17,5.17,0,0,0,3.19-1.26,21.72,21.72,0,0,0,3.63-4,7.15,7.15,0,0,0-.13,1.31,3.25,3.25,0,0,0,.83,2.24,3.13,3.13,0,0,0,2.42.92,6.35,6.35,0,0,0,3.3-1,12.17,12.17,0,0,0,3.2-2.91,16.38,16.38,0,0,0,2.44-4.27l-.45-.45A22.52,22.52,0,0,1,314.91,740.16Z" transform="translate(-272.46 -709.75)"/><path class="a" d="M336.46,738a14.12,14.12,0,0,1-2.86,2.68,5.15,5.15,0,0,1-2.92,1.09,1.2,1.2,0,0,1-1.35-1.36,8.88,8.88,0,0,1,1-3.11c.42-1.06.74-1.91.95-2.56a6.29,6.29,0,0,0,.32-2,3.9,3.9,0,0,0-.79-2.51,11.41,11.41,0,0,0-2.19-2,9.52,9.52,0,0,1-1.25-1,1.2,1.2,0,0,1-.38-.84,8.29,8.29,0,0,1,.27-.86,3.48,3.48,0,0,0,.23-.81q0-1.08-.63-1.08a1.33,1.33,0,0,0-.75.4,3.19,3.19,0,0,0-.81,1.13,3.53,3.53,0,0,0-.34,1.54,1.47,1.47,0,0,0,.45,1.08,61.77,61.77,0,0,1-3.66,8.58l.41.77c.51-.87,1.14-2.11,1.9-3.73s1.46-3.25,2.12-4.94l.86.56a5.36,5.36,0,0,1,1.15,1.09,2.81,2.81,0,0,1,.52,1.78,5.16,5.16,0,0,1-.3,1.65c-.19.59-.49,1.38-.88,2.37a12,12,0,0,0-1.31,4.43,2.77,2.77,0,0,0,.88,2.12,3.45,3.45,0,0,0,2.42.81,8.07,8.07,0,0,0,5.37-2.39,16.32,16.32,0,0,0,4.07-5.51l-.59-.45A12.83,12.83,0,0,1,336.46,738Z" transform="translate(-272.46 -709.75)"/><path class="a" d="M357.1,737.5a5.45,5.45,0,0,1-2.71.79,3.47,3.47,0,0,1-1.71-.45,22.3,22.3,0,0,0,2.19-4.18,10.71,10.71,0,0,0,.83-3.86,4.09,4.09,0,0,0-.7-2.55,2.82,2.82,0,0,0-2.41-.93,3.78,3.78,0,0,0-3.23,1.67,6.73,6.73,0,0,0-1.2,4,8.83,8.83,0,0,0,.7,3.48,6.85,6.85,0,0,0,2,2.71,14.27,14.27,0,0,1-2.58,2.62,4,4,0,0,1-2.26,1c-1.08,0-1.62-.86-1.62-2.57a9.88,9.88,0,0,1,.56-2.83,23.31,23.31,0,0,1,1.34-3.27,6.75,6.75,0,0,1,1.3-2,2.48,2.48,0,0,0-.94-.22,3.38,3.38,0,0,0-2.44,1.35,10.48,10.48,0,0,0-2,3.39,11,11,0,0,0-.77,3.88,4.79,4.79,0,0,0,.86,3,3.17,3.17,0,0,0,2.71,1.13,6,6,0,0,0,3.46-1.31,16.43,16.43,0,0,0,3.45-3.43,5,5,0,0,0,2.17.45,6.17,6.17,0,0,0,5.69-3.88l-.54-.45A5,5,0,0,1,357.1,737.5Zm-5.46-.48a5.87,5.87,0,0,1-1.15-2.19,9.14,9.14,0,0,1-.39-2.68,6.27,6.27,0,0,1,.43-2.33,4.61,4.61,0,0,1,1.09-1.67,1.88,1.88,0,0,1,1.28-.61,1.12,1.12,0,0,1,1,.63,3.69,3.69,0,0,1,.39,1.9,9.25,9.25,0,0,1-.72,3.36A19.71,19.71,0,0,1,351.64,737Z" transform="translate(-272.46 -709.75)"/><circle class="b" cx="93.51" cy="29.3" r="3.51"/></svg>